<svg xmlns="http://www.w3.org/2000/svg" xmlns:xlink="http://www.w3.org/1999/xlink" width="800" zoomAndPan="magnify" viewBox="0 0 600 599.999999" height="800" preserveAspectRatio="xMidYMid meet" version="1.0"><defs><clipPath id="7bab0da96e"><path d="M 60 89.898438 L 238.5 89.898438 L 238.5 329.898438 L 60 329.898438 Z M 60 89.898438 " clip-rule="nonzero"/></clipPath><clipPath id="5924648a30"><path d="M 361.5 251.546875 L 540 251.546875 L 540 491.546875 L 361.5 491.546875 Z M 361.5 251.546875 " clip-rule="nonzero"/></clipPath></defs><path fill="#caddff" d="M 151.394531 392.433594 C 160.199219 413.820312 180.75 423.945312 193.886719 430.421875 C 245.667969 455.933594 324.300781 452.996094 380.878906 406.554688 C 394.121094 395.691406 459.378906 338.753906 444.128906 261.589844 C 430.652344 193.378906 363.03125 153.765625 306.101562 148.472656 C 258.9375 144.085938 197.355469 161.261719 175.613281 202.855469 C 161.941406 229.011719 178.394531 237.328125 167.234375 296.605469 C 157.578125 347.914062 140.625 366.273438 151.394531 392.433594 " fill-opacity="1" fill-rule="nonzero"/><path fill="#ffffff" d="M 349.21875 245.40625 C 349.21875 298.136719 306.886719 340.878906 254.664062 340.878906 C 202.441406 340.878906 160.109375 298.136719 160.109375 245.40625 C 160.109375 192.679688 202.441406 149.9375 254.664062 149.9375 C 306.886719 149.9375 349.21875 192.679688 349.21875 245.40625 " fill-opacity="1" fill-rule="nonzero"/><path fill="#caddff" d="M 236.492188 158.476562 C 236.105469 159.054688 237.257812 160.992188 239.554688 160.992188 C 241.851562 160.992188 243 160.601562 243.957031 163.117188 C 244.914062 165.628906 243.574219 174.132812 244.914062 177.222656 C 246.253906 180.316406 248.550781 182.246094 250.273438 180.507812 C 251.996094 178.769531 251.804688 174.132812 253.910156 172.972656 C 256.015625 171.8125 263.671875 167.171875 264.054688 163.308594 C 264.4375 159.445312 261.757812 156.546875 255.058594 155.773438 C 248.359375 154.996094 239.363281 154.226562 236.492188 158.476562 " fill-opacity="1" fill-rule="nonzero"/><path fill="#99b9ff" d="M 205.785156 244.210938 C 204.785156 244.714844 204.1875 245.679688 204.234375 246.714844 C 204.386719 249.957031 203.027344 258.035156 200.167969 260.613281 C 196.53125 263.898438 197.871094 269.820312 197.816406 272.207031 C 197.699219 277.0625 198.21875 279.222656 203.996094 281.539062 C 209.773438 283.859375 212.039062 283.992188 212.464844 288.628906 C 212.894531 293.269531 213.558594 311.183594 215.269531 315.824219 C 216.984375 320.460938 220.621094 328 222.546875 329.738281 C 224.472656 331.476562 228.96875 332.441406 226.183594 325.871094 C 223.402344 319.300781 221.691406 316.207031 224.902344 312.535156 C 228.113281 308.863281 233.460938 300.363281 233.890625 297.078125 C 234.316406 293.792969 236.242188 291.859375 237.957031 291.472656 C 239.667969 291.085938 243.304688 289.925781 244.375 288.765625 C 245.445312 287.605469 243.304688 284.320312 242.664062 281.421875 C 242.019531 278.523438 242.019531 276.785156 247.371094 274.464844 C 252.722656 272.148438 250.152344 265.574219 242.878906 263.835938 C 235.601562 262.097656 231.109375 258.425781 231.964844 254.753906 C 232.820312 251.082031 227.042969 251.46875 223.617188 249.730469 C 220.195312 247.988281 220.296875 245.257812 216.484375 243.957031 C 211.335938 242.195312 207.71875 243.234375 205.785156 244.210938 " fill-opacity="1" fill-rule="nonzero"/><path fill="#99b9ff" d="M 323.507812 240.15625 C 321.894531 237.710938 322.09375 233.84375 326.128906 228.554688 C 329.292969 224.394531 324.75 220.238281 322.652344 218.644531 C 322.269531 218.355469 322.445312 217.746094 322.921875 217.691406 C 325.519531 217.394531 331.542969 218.277344 334.191406 231.808594 C 337.617188 249.316406 339.03125 243.207031 340.847656 241.171875 C 342.660156 239.136719 339.265625 235.335938 342.660156 231.402344 C 344.800781 228.925781 345.886719 225.304688 346.4375 222.359375 C 339.621094 194.589844 320.769531 171.617188 295.789062 159.417969 C 295.828125 162.464844 295.097656 173.085938 282.78125 168.703125 C 282.78125 168.703125 275.121094 165.039062 276.933594 179.898438 C 278.75 194.761719 285 178.882812 286.210938 178.273438 C 287.417969 177.664062 290.644531 176.847656 289.234375 186.820312 C 289.234375 186.820312 289.03125 190.28125 282.78125 189.671875 C 276.53125 189.058594 275.320312 192.113281 275.320312 193.742188 C 275.320312 195.371094 275.925781 199.648438 272.5 202.699219 C 269.074219 205.753906 270.078125 213.691406 274.71875 211.042969 C 279.355469 208.398438 282.578125 200.054688 286.8125 199.238281 C 291.046875 198.425781 294.878906 203.921875 298.910156 202.496094 C 302.945312 201.070312 301.128906 194.148438 303.144531 194.148438 C 305.160156 194.148438 309.394531 198.222656 308.789062 201.277344 C 308.183594 204.328125 301.933594 205.753906 303.546875 209.417969 C 305.160156 213.082031 308.585938 211.859375 309.59375 214.300781 C 310.605469 216.746094 304.554688 219.597656 299.714844 216.542969 C 294.878906 213.488281 294.074219 217.964844 291.652344 215.929688 C 289.234375 213.894531 289.03125 209.621094 285.605469 211.042969 C 282.175781 212.46875 280.160156 215.320312 275.722656 217.355469 C 271.289062 219.390625 267.660156 222.039062 267.660156 224.890625 C 267.660156 227.738281 269.273438 230.792969 268.46875 235.269531 C 267.660156 239.746094 266.25 251.964844 280.765625 249.519531 C 295.28125 247.078125 293.46875 254.609375 293.46875 255.421875 C 293.46875 256.238281 293.265625 266.820312 294.675781 268.65625 C 296.085938 270.484375 299.3125 275.78125 294.675781 282.699219 C 290.039062 289.621094 291.855469 305.09375 296.085938 303.058594 C 300.320312 301.023438 304.554688 293.082031 309.796875 289.011719 C 315.039062 284.941406 322.296875 267.230469 319.273438 261.734375 C 316.25 256.238281 323.507812 251.761719 324.511719 248.09375 C 325.523438 244.429688 325.121094 242.597656 323.507812 240.15625 " fill-opacity="1" fill-rule="nonzero"/><path fill="#99b9ff" d="M 186.960938 178.511719 C 187.046875 181.902344 186.742188 186.433594 184.570312 189.894531 C 178.019531 200.328125 178.230469 205.546875 177.597656 215.984375 C 176.964844 226.417969 191.382812 244.816406 194.972656 246.746094 C 198.566406 248.679688 199.117188 244.082031 199.117188 240.414062 C 199.117188 236.738281 197.585938 232.335938 195.472656 228.082031 C 193.359375 223.832031 193.359375 221.125 193.992188 219.386719 C 194.625 217.648438 197.164062 217.070312 198.851562 218.808594 C 200.542969 220.546875 204.605469 222.089844 206.558594 221 C 208.957031 219.667969 208.023438 214.4375 208.867188 212.699219 C 209.714844 210.957031 214.363281 209.796875 216.261719 206.128906 C 218.164062 202.453125 221.335938 200.90625 225.136719 199.167969 C 228.941406 197.429688 232.320312 196.65625 232.957031 195.496094 C 233.589844 194.335938 232.746094 191.632812 233.800781 188.539062 C 234.855469 185.449219 237.394531 181.773438 236.335938 180.230469 C 235.28125 178.683594 232.109375 176.171875 226.195312 180.035156 C 220.277344 183.902344 218.800781 183.902344 217.109375 181 C 215.417969 178.105469 219.011719 170.566406 226.40625 170.566406 C 233.800781 170.566406 235.28125 168.25 235.492188 166.507812 C 235.703125 164.769531 233.378906 162.835938 230.84375 162.449219 C 228.308594 162.0625 227.886719 163.414062 217.320312 167.28125 C 210.269531 169.859375 203.71875 168.414062 200.371094 167.726562 C 195.570312 170.96875 191.082031 174.578125 186.960938 178.511719 " fill-opacity="1" fill-rule="nonzero"/><path fill="#99b9ff" d="M 344.761719 262.605469 C 343.332031 262.289062 343.652344 265.8125 341.746094 266.453125 C 339.839844 267.09375 339.046875 268.054688 339.523438 271.582031 C 340 275.109375 339.207031 279.757812 337.300781 281.519531 C 335.394531 283.28125 332.699219 284.566406 332.539062 288.890625 C 332.378906 293.21875 328.410156 297.386719 326.03125 298.828125 C 323.652344 300.269531 320 302.515625 320 306.199219 C 320 308.574219 319.9375 311.609375 320.484375 313.941406 C 333.085938 301.601562 342.289062 285.753906 346.558594 267.957031 C 346.1875 265.589844 345.578125 262.792969 344.761719 262.605469 " fill-opacity="1" fill-rule="nonzero"/><path fill="#5479f7" d="M 224.230469 344.457031 C 224.179688 344.457031 224.125 344.445312 224.074219 344.429688 C 215.894531 341.921875 208.019531 338.414062 200.664062 333.996094 C 200.40625 333.84375 200.324219 333.511719 200.476562 333.253906 C 200.632812 333 200.964844 332.917969 201.21875 333.070312 C 208.5 337.4375 216.296875 340.914062 224.390625 343.398438 C 224.675781 343.484375 224.835938 343.789062 224.75 344.074219 C 224.675781 344.304688 224.464844 344.457031 224.230469 344.457031 " fill-opacity="1" fill-rule="nonzero"/><path fill="#5479f7" d="M 255.28125 349.089844 C 250.519531 349.089844 245.726562 348.769531 241.042969 348.144531 C 240.746094 348.105469 240.539062 347.832031 240.578125 347.535156 C 240.617188 347.238281 240.890625 347.03125 241.1875 347.074219 C 245.824219 347.691406 250.566406 348.007812 255.28125 348.007812 C 269.515625 348.007812 283.324219 345.214844 296.320312 339.699219 C 296.597656 339.582031 296.910156 339.710938 297.03125 339.984375 C 297.144531 340.261719 297.019531 340.578125 296.742188 340.695312 C 283.609375 346.265625 269.660156 349.089844 255.28125 349.089844 " fill-opacity="1" fill-rule="nonzero"/><path fill="#5479f7" d="M 254.664062 341.417969 C 234.839844 341.417969 215.84375 335.324219 199.726562 323.785156 C 199.484375 323.613281 199.429688 323.273438 199.601562 323.03125 C 199.777344 322.789062 200.113281 322.734375 200.355469 322.90625 C 216.289062 334.3125 235.066406 340.339844 254.664062 340.339844 C 270.386719 340.339844 285.941406 336.34375 299.648438 328.785156 C 299.910156 328.644531 300.238281 328.738281 300.382812 329 C 300.527344 329.257812 300.433594 329.589844 300.171875 329.730469 C 286.304688 337.378906 270.566406 341.417969 254.664062 341.417969 " fill-opacity="1" fill-rule="nonzero"/><path fill="#5479f7" d="M 160.445312 254.042969 C 160.164062 254.042969 159.929688 253.828125 159.90625 253.546875 C 159.683594 250.859375 159.570312 248.121094 159.570312 245.40625 C 159.570312 219.761719 169.460938 195.652344 187.417969 177.515625 C 205.382812 159.382812 229.261719 149.394531 254.664062 149.394531 C 277.136719 149.394531 298.941406 157.453125 316.066406 172.089844 C 332.992188 186.554688 344.4375 206.589844 348.289062 228.503906 C 348.34375 228.800781 348.144531 229.082031 347.851562 229.132812 C 347.5625 229.183594 347.277344 228.988281 347.226562 228.691406 C 339.253906 183.371094 300.328125 150.476562 254.664062 150.476562 C 202.824219 150.476562 160.648438 193.0625 160.648438 245.40625 C 160.648438 248.089844 160.761719 250.796875 160.984375 253.457031 C 161.007812 253.757812 160.785156 254.015625 160.488281 254.042969 C 160.472656 254.042969 160.460938 254.042969 160.445312 254.042969 " fill-opacity="1" fill-rule="nonzero"/><path fill="#5479f7" d="M 231.671875 239.066406 C 231.671875 228.363281 224.109375 219.6875 214.78125 219.6875 C 206.832031 219.6875 200.164062 225.996094 198.371094 234.488281 C 198.167969 234.484375 197.960938 234.480469 197.757812 234.480469 C 184.277344 234.480469 173.351562 246.433594 173.351562 261.175781 C 173.351562 262.167969 173.402344 263.148438 173.5 264.109375 C 164.683594 266.066406 158.054688 274.507812 158.054688 284.628906 C 158.054688 287.078125 158.445312 289.429688 159.15625 291.613281 C 152.726562 295.722656 148.414062 303.292969 148.414062 311.957031 C 148.414062 320.167969 152.285156 327.398438 158.164062 331.628906 C 152.285156 335.859375 148.414062 343.089844 148.414062 351.296875 C 148.414062 363.742188 157.316406 373.941406 168.605469 374.84375 C 168.558594 375.414062 168.53125 375.992188 168.53125 376.574219 C 168.53125 387.15625 176.460938 395.738281 186.242188 395.738281 C 188.3125 395.738281 190.296875 395.347656 192.144531 394.644531 C 193.050781 404.675781 201.535156 412.542969 211.867188 412.542969 C 222.804688 412.542969 231.671875 403.730469 231.671875 392.863281 C 231.671875 392.746094 231.667969 392.632812 231.667969 392.515625 L 231.671875 392.515625 L 231.671875 240.535156 L 231.617188 240.535156 C 231.648438 240.050781 231.671875 239.5625 231.671875 239.066406 " fill-opacity="1" fill-rule="nonzero"/><path fill="#000000" d="M 192.144531 394.101562 C 192.246094 394.101562 192.34375 394.128906 192.429688 394.183594 C 192.574219 394.273438 192.667969 394.425781 192.683594 394.59375 C 193.578125 404.519531 201.824219 412.003906 211.867188 412.003906 C 222.488281 412.003906 231.132812 403.414062 231.132812 392.863281 C 231.132812 392.769531 231.128906 392.679688 231.128906 392.585938 L 231.128906 392.523438 C 231.128906 392.496094 231.128906 392.472656 231.132812 392.445312 L 231.132812 240.769531 C 231.09375 240.6875 231.074219 240.59375 231.078125 240.5 C 231.117188 239.953125 231.132812 239.5 231.132812 239.066406 C 231.132812 228.675781 223.796875 220.226562 214.785156 220.226562 C 207.21875 220.226562 200.6875 226.136719 198.902344 234.597656 C 198.847656 234.855469 198.621094 235.03125 198.359375 235.027344 C 198.160156 235.023438 197.957031 235.019531 197.757812 235.019531 C 184.597656 235.019531 173.894531 246.753906 173.894531 261.175781 C 173.894531 262.125 173.941406 263.09375 174.039062 264.054688 C 174.066406 264.332031 173.886719 264.578125 173.617188 264.636719 C 164.910156 266.570312 158.59375 274.976562 158.59375 284.625 C 158.59375 286.960938 158.957031 289.257812 159.671875 291.445312 C 159.75 291.679688 159.65625 291.933594 159.449219 292.066406 C 152.976562 296.203125 148.953125 303.824219 148.953125 311.957031 C 148.953125 319.707031 152.515625 326.894531 158.480469 331.1875 C 158.621094 331.289062 158.703125 331.453125 158.703125 331.628906 C 158.703125 331.800781 158.621094 331.964844 158.480469 332.066406 C 152.515625 336.359375 148.953125 343.550781 148.953125 351.296875 C 148.953125 363.3125 157.605469 373.421875 168.648438 374.304688 C 168.792969 374.316406 168.925781 374.382812 169.019531 374.492188 C 169.113281 374.601562 169.15625 374.742188 169.144531 374.886719 C 169.097656 375.484375 169.074219 376.035156 169.074219 376.574219 C 169.074219 386.84375 176.773438 395.195312 186.242188 395.195312 C 188.195312 395.195312 190.113281 394.839844 191.953125 394.136719 C 192.015625 394.113281 192.078125 394.101562 192.144531 394.101562 Z M 211.867188 413.082031 C 206.753906 413.082031 201.867188 411.191406 198.105469 407.753906 C 194.539062 404.496094 192.273438 400.125 191.679688 395.382812 C 189.921875 395.976562 188.09375 396.277344 186.242188 396.277344 C 176.179688 396.277344 167.992188 387.4375 167.992188 376.574219 C 167.992188 376.171875 168.003906 375.761719 168.03125 375.332031 C 156.683594 374.128906 147.875 363.679688 147.875 351.296875 C 147.875 343.460938 151.371094 336.164062 157.257812 331.628906 C 151.371094 327.089844 147.875 319.792969 147.875 311.957031 C 147.875 303.605469 151.941406 295.761719 158.519531 291.382812 C 157.851562 289.207031 157.511719 286.9375 157.511719 284.625 C 157.511719 274.644531 163.964844 265.921875 172.917969 263.691406 C 172.847656 262.851562 172.8125 262.007812 172.8125 261.175781 C 172.8125 246.15625 184.003906 233.9375 197.757812 233.9375 C 197.816406 233.9375 197.878906 233.941406 197.941406 233.941406 C 199.964844 225.207031 206.835938 219.144531 214.785156 219.144531 C 224.394531 219.144531 232.214844 228.082031 232.214844 239.066406 C 232.214844 239.457031 232.199219 239.863281 232.171875 240.332031 C 232.199219 240.394531 232.214844 240.464844 232.214844 240.535156 L 232.214844 392.515625 C 232.214844 392.535156 232.210938 392.554688 232.210938 392.574219 C 232.210938 392.667969 232.214844 392.765625 232.214844 392.863281 C 232.214844 404.011719 223.085938 413.082031 211.867188 413.082031 " fill-opacity="1" fill-rule="nonzero"/><path fill="#000000" d="M 173.179688 350.195312 C 172.601562 350.195312 172.023438 350.171875 171.445312 350.121094 C 171.148438 350.097656 170.929688 349.835938 170.953125 349.539062 C 170.980469 349.242188 171.238281 349.019531 171.539062 349.042969 C 180.179688 349.777344 188.8125 344.664062 193.011719 336.320312 C 193.148438 336.054688 193.472656 335.949219 193.738281 336.082031 C 194.007812 336.214844 194.113281 336.542969 193.980469 336.808594 C 189.863281 344.984375 181.660156 350.195312 173.179688 350.195312 " fill-opacity="1" fill-rule="nonzero"/><path fill="#000000" d="M 180.820312 374.503906 C 180.734375 374.503906 180.652344 374.484375 180.574219 374.445312 C 180.308594 374.308594 180.203125 373.980469 180.339844 373.714844 C 180.894531 372.632812 181.375 371.488281 181.769531 370.324219 C 184.253906 362.984375 183.183594 355.03125 178.910156 349.042969 C 178.738281 348.800781 178.792969 348.460938 179.039062 348.289062 C 179.28125 348.113281 179.617188 348.171875 179.792969 348.414062 C 184.265625 354.683594 185.386719 363.003906 182.792969 370.671875 C 182.382812 371.886719 181.878906 373.078125 181.300781 374.207031 C 181.203125 374.394531 181.015625 374.503906 180.820312 374.503906 " fill-opacity="1" fill-rule="nonzero"/><path fill="#000000" d="M 177.90625 324.15625 C 177.894531 324.15625 177.886719 324.15625 177.878906 324.15625 C 177.578125 324.140625 177.351562 323.886719 177.363281 323.589844 C 177.851562 313.820312 183.964844 305.246094 192.574219 302.253906 C 192.855469 302.15625 193.164062 302.304688 193.261719 302.585938 C 193.359375 302.867188 193.210938 303.175781 192.925781 303.273438 C 184.730469 306.121094 178.910156 314.308594 178.445312 323.644531 C 178.429688 323.933594 178.191406 324.15625 177.90625 324.15625 " fill-opacity="1" fill-rule="nonzero"/><path fill="#000000" d="M 185.914062 307.285156 C 185.820312 307.285156 185.722656 307.261719 185.636719 307.207031 C 179.011719 303.296875 174.621094 296.148438 173.890625 288.089844 C 173.773438 286.808594 173.753906 285.515625 173.824219 284.246094 C 173.839844 283.949219 174.097656 283.71875 174.394531 283.734375 C 174.691406 283.753906 174.921875 284.007812 174.902344 284.308594 C 174.835938 285.523438 174.855469 286.761719 174.96875 287.992188 C 175.667969 295.707031 179.859375 302.542969 186.1875 306.277344 C 186.445312 306.429688 186.53125 306.761719 186.378906 307.019531 C 186.277344 307.1875 186.097656 307.285156 185.914062 307.285156 " fill-opacity="1" fill-rule="nonzero"/><path fill="#000000" d="M 214.199219 300.496094 C 214.050781 300.496094 213.90625 300.4375 213.800781 300.324219 C 207.632812 293.652344 207.632812 282.792969 213.800781 276.121094 C 219.855469 269.570312 219.855469 258.910156 213.800781 252.359375 L 211.445312 249.8125 C 211.242188 249.589844 211.257812 249.25 211.476562 249.046875 C 211.695312 248.84375 212.035156 248.855469 212.238281 249.074219 L 214.59375 251.625 C 221.023438 258.582031 221.023438 269.898438 214.59375 276.855469 C 208.800781 283.125 208.800781 293.320312 214.59375 299.589844 C 214.796875 299.808594 214.785156 300.148438 214.566406 300.351562 C 214.460938 300.449219 214.328125 300.496094 214.199219 300.496094 " fill-opacity="1" fill-rule="nonzero"/><path fill="#000000" d="M 208.046875 390.15625 C 207.847656 390.15625 207.660156 390.046875 207.5625 389.859375 C 207.425781 389.59375 207.53125 389.269531 207.800781 389.132812 C 215.621094 385.144531 220.511719 376.179688 219.964844 366.832031 C 219.949219 366.535156 220.175781 366.277344 220.472656 366.261719 C 220.769531 366.242188 221.027344 366.472656 221.046875 366.769531 C 221.617188 376.539062 216.488281 385.914062 208.289062 390.097656 C 208.210938 390.136719 208.128906 390.15625 208.046875 390.15625 " fill-opacity="1" fill-rule="nonzero"/><path fill="#000000" d="M 223.191406 344.421875 C 223.113281 344.421875 223.03125 344.40625 222.957031 344.367188 C 214.179688 340.085938 208.535156 331.011719 208.914062 321.792969 C 208.925781 321.5 209.179688 321.269531 209.476562 321.277344 C 209.773438 321.289062 210.007812 321.542969 209.996094 321.839844 C 209.632812 330.636719 215.035156 339.296875 223.429688 343.394531 C 223.699219 343.527344 223.808594 343.851562 223.679688 344.121094 C 223.585938 344.3125 223.390625 344.421875 223.191406 344.421875 " fill-opacity="1" fill-rule="nonzero"/><path fill="#5479f7" d="M 235.820312 240.535156 L 235.765625 240.535156 L 235.765625 392.515625 L 235.769531 392.515625 C 235.769531 392.632812 235.765625 392.746094 235.765625 392.863281 C 235.765625 403.730469 244.632812 412.542969 255.570312 412.542969 C 265.902344 412.542969 274.386719 404.675781 275.292969 394.644531 C 277.140625 395.347656 279.125 395.738281 281.195312 395.738281 C 290.976562 395.738281 298.90625 387.15625 298.90625 376.574219 C 298.90625 375.992188 298.878906 375.414062 298.832031 374.84375 C 310.121094 373.941406 319.023438 363.742188 319.023438 351.296875 C 319.023438 343.089844 315.148438 335.859375 309.273438 331.628906 C 315.148438 327.398438 319.023438 320.167969 319.023438 311.957031 C 319.023438 303.292969 314.707031 295.722656 308.277344 291.613281 C 308.996094 289.429688 309.382812 287.078125 309.382812 284.628906 C 309.382812 274.507812 302.753906 266.066406 293.9375 264.109375 C 294.03125 263.148438 294.085938 262.167969 294.085938 261.175781 C 294.085938 246.433594 283.15625 234.480469 269.679688 234.480469 C 269.476562 234.480469 269.269531 234.484375 269.0625 234.488281 C 267.273438 225.996094 260.605469 219.6875 252.652344 219.6875 C 243.328125 219.6875 235.765625 228.363281 235.765625 239.066406 C 235.765625 239.5625 235.785156 240.050781 235.820312 240.535156 " fill-opacity="1" fill-rule="nonzero"/><path fill="#000000" d="M 236.308594 392.445312 C 236.3125 392.472656 236.3125 392.496094 236.3125 392.523438 L 236.3125 392.566406 C 236.308594 392.667969 236.308594 392.765625 236.308594 392.863281 C 236.308594 403.414062 244.949219 412.003906 255.570312 412.003906 C 265.613281 412.003906 273.859375 404.519531 274.753906 394.59375 C 274.769531 394.425781 274.863281 394.273438 275.007812 394.183594 C 275.152344 394.09375 275.328125 394.078125 275.488281 394.136719 C 277.324219 394.839844 279.246094 395.195312 281.195312 395.195312 C 290.664062 395.195312 298.367188 386.84375 298.367188 376.574219 C 298.367188 376.035156 298.34375 375.484375 298.292969 374.886719 C 298.28125 374.742188 298.324219 374.601562 298.417969 374.492188 C 298.511719 374.382812 298.644531 374.316406 298.789062 374.304688 C 309.832031 373.421875 318.484375 363.3125 318.484375 351.296875 C 318.484375 343.550781 314.921875 336.359375 308.960938 332.066406 C 308.820312 331.964844 308.734375 331.800781 308.734375 331.628906 C 308.734375 331.453125 308.820312 331.289062 308.960938 331.1875 C 314.921875 326.894531 318.484375 319.707031 318.484375 311.957031 C 318.484375 303.824219 314.460938 296.203125 307.988281 292.066406 C 307.78125 291.933594 307.6875 291.679688 307.765625 291.445312 C 308.480469 289.257812 308.847656 286.964844 308.847656 284.625 C 308.847656 274.976562 302.527344 266.570312 293.820312 264.636719 C 293.554688 264.578125 293.371094 264.332031 293.398438 264.054688 C 293.496094 263.09375 293.542969 262.125 293.542969 261.175781 C 293.542969 246.753906 282.839844 235.019531 269.679688 235.019531 C 269.480469 235.019531 269.28125 235.023438 269.078125 235.027344 C 268.824219 235.03125 268.589844 234.855469 268.535156 234.597656 C 266.75 226.136719 260.21875 220.226562 252.65625 220.226562 C 243.640625 220.226562 236.308594 228.675781 236.308594 239.066406 C 236.308594 239.5 236.324219 239.953125 236.359375 240.5 C 236.367188 240.59375 236.347656 240.6875 236.308594 240.769531 Z M 255.570312 413.082031 C 244.351562 413.082031 235.226562 404.011719 235.226562 392.863281 C 235.226562 392.765625 235.226562 392.667969 235.230469 392.574219 C 235.226562 392.554688 235.226562 392.535156 235.226562 392.515625 L 235.226562 240.535156 C 235.226562 240.464844 235.238281 240.394531 235.265625 240.332031 C 235.238281 239.863281 235.226562 239.457031 235.226562 239.066406 C 235.226562 228.082031 243.042969 219.144531 252.65625 219.144531 C 260.601562 219.144531 267.472656 225.207031 269.496094 233.941406 C 269.558594 233.941406 269.621094 233.9375 269.679688 233.9375 C 283.4375 233.9375 294.625 246.15625 294.625 261.175781 C 294.625 262.007812 294.589844 262.851562 294.519531 263.691406 C 303.476562 265.921875 309.925781 274.644531 309.925781 284.625 C 309.925781 286.9375 309.585938 289.207031 308.921875 291.382812 C 315.496094 295.761719 319.566406 303.605469 319.566406 311.957031 C 319.566406 319.792969 316.070312 327.089844 310.179688 331.628906 C 316.070312 336.164062 319.566406 343.460938 319.566406 351.296875 C 319.566406 363.679688 310.753906 374.128906 299.410156 375.332031 C 299.433594 375.761719 299.449219 376.171875 299.449219 376.574219 C 299.449219 387.4375 291.261719 396.277344 281.195312 396.277344 C 279.34375 396.277344 277.515625 395.976562 275.757812 395.382812 C 275.164062 400.125 272.898438 404.496094 269.332031 407.753906 C 265.570312 411.191406 260.683594 413.082031 255.570312 413.082031 " fill-opacity="1" fill-rule="nonzero"/><path fill="#caddff" d="M 282.367188 365.191406 C 282.082031 365.191406 281.847656 364.972656 281.828125 364.6875 L 280.296875 343.105469 C 280.039062 339.492188 277.027344 336.679688 273.421875 336.679688 C 273.398438 336.679688 273.375 336.679688 273.351562 336.679688 L 249.792969 336.910156 C 249.5 336.914062 249.25 336.675781 249.246094 336.375 C 249.242188 336.074219 249.484375 335.832031 249.78125 335.828125 L 273.34375 335.601562 C 277.546875 335.5625 281.078125 338.820312 281.375 343.03125 L 282.90625 364.613281 C 282.925781 364.910156 282.703125 365.167969 282.40625 365.191406 C 282.390625 365.191406 282.378906 365.191406 282.367188 365.191406 " fill-opacity="1" fill-rule="nonzero"/><path fill="#ffffff" d="M 282.578125 367.96875 C 280.808594 368.09375 279.273438 366.757812 279.144531 364.984375 C 279.019531 363.207031 280.351562 361.667969 282.125 361.539062 C 283.894531 361.414062 285.429688 362.75 285.558594 364.527344 C 285.683594 366.300781 284.351562 367.84375 282.578125 367.96875 " fill-opacity="1" fill-rule="nonzero"/><path fill="#caddff" d="M 265.777344 373.382812 C 265.496094 373.382812 265.257812 373.164062 265.238281 372.882812 L 264.351562 360.375 C 264.097656 356.761719 261.082031 353.949219 257.476562 353.949219 C 257.453125 353.949219 257.429688 353.949219 257.40625 353.949219 L 249.792969 354.027344 C 249.5 354.03125 249.25 353.789062 249.246094 353.492188 C 249.242188 353.191406 249.484375 352.949219 249.78125 352.945312 L 257.398438 352.871094 C 257.421875 352.871094 257.449219 352.871094 257.476562 352.871094 C 261.648438 352.871094 265.132812 356.121094 265.429688 360.300781 L 266.316406 372.804688 C 266.339844 373.101562 266.113281 373.359375 265.816406 373.382812 C 265.804688 373.382812 265.789062 373.382812 265.777344 373.382812 " fill-opacity="1" fill-rule="nonzero"/><path fill="#ffffff" d="M 265.914062 376.605469 C 264.144531 376.730469 262.605469 375.394531 262.480469 373.617188 C 262.355469 371.84375 263.6875 370.300781 265.457031 370.175781 C 267.226562 370.046875 268.765625 371.386719 268.890625 373.160156 C 269.019531 374.9375 267.683594 376.480469 265.914062 376.605469 " fill-opacity="1" fill-rule="nonzero"/><path fill="#ffffff" d="M 283.5625 323.625 C 283.5625 323.625 283.5625 323.625 283.558594 323.625 L 249.785156 323.554688 C 249.484375 323.550781 249.242188 323.3125 249.246094 323.011719 C 249.246094 322.714844 249.488281 322.472656 249.785156 322.472656 L 283.5625 322.542969 C 283.863281 322.542969 284.101562 322.785156 284.101562 323.085938 C 284.101562 323.382812 283.859375 323.625 283.5625 323.625 " fill-opacity="1" fill-rule="nonzero"/><path fill="#000000" d="M 293.527344 326.296875 C 291.757812 326.425781 290.21875 325.089844 290.09375 323.3125 C 289.96875 321.539062 291.300781 319.996094 293.070312 319.867188 C 294.839844 319.742188 296.378906 321.078125 296.503906 322.855469 C 296.628906 324.628906 295.296875 326.171875 293.527344 326.296875 " fill-opacity="1" fill-rule="nonzero"/><path fill="#ffffff" d="M 293.300781 313.859375 C 288.226562 313.859375 284.101562 317.996094 284.101562 323.082031 C 284.101562 328.171875 288.226562 332.308594 293.300781 332.308594 C 298.371094 332.308594 302.496094 328.171875 302.496094 323.082031 C 302.496094 317.996094 298.371094 313.859375 293.300781 313.859375 Z M 293.300781 333.390625 C 287.632812 333.390625 283.019531 328.765625 283.019531 323.082031 C 283.019531 317.402344 287.632812 312.777344 293.300781 312.777344 C 298.964844 312.777344 303.578125 317.402344 303.578125 323.082031 C 303.578125 328.765625 298.964844 333.390625 293.300781 333.390625 " fill-opacity="1" fill-rule="nonzero"/><path fill="#caddff" d="M 263.519531 309.203125 L 249.785156 309.203125 C 249.488281 309.203125 249.246094 308.957031 249.246094 308.660156 C 249.246094 308.359375 249.488281 308.121094 249.785156 308.121094 L 263.519531 308.121094 C 265.917969 308.121094 267.246094 307.652344 269.277344 304.75 C 273.019531 299.410156 282.285156 284.019531 282.378906 283.863281 C 282.53125 283.605469 282.863281 283.527344 283.121094 283.679688 C 283.375 283.835938 283.457031 284.164062 283.304688 284.421875 C 283.210938 284.574219 273.925781 300 270.164062 305.371094 C 268.109375 308.304688 266.558594 309.203125 263.519531 309.203125 " fill-opacity="1" fill-rule="nonzero"/><path fill="#ffffff" d="M 286.054688 283.996094 C 286.054688 285.777344 284.617188 287.21875 282.84375 287.21875 C 281.066406 287.21875 279.628906 285.777344 279.628906 283.996094 C 279.628906 282.21875 281.066406 280.773438 282.84375 280.773438 C 284.617188 280.773438 286.054688 282.21875 286.054688 283.996094 " fill-opacity="1" fill-rule="nonzero"/><path fill="#caddff" d="M 251.71875 287.761719 L 249.785156 287.761719 C 249.488281 287.761719 249.246094 287.519531 249.246094 287.21875 C 249.246094 286.921875 249.488281 286.679688 249.785156 286.679688 L 251.71875 286.679688 C 254.113281 286.679688 255.441406 286.210938 257.472656 283.3125 C 258.988281 281.148438 261.667969 276.960938 265.226562 271.191406 C 265.382812 270.9375 265.714844 270.859375 265.96875 271.015625 C 266.222656 271.171875 266.300781 271.507812 266.144531 271.761719 C 262.527344 277.625 259.90625 281.722656 258.359375 283.929688 C 256.304688 286.867188 254.753906 287.761719 251.71875 287.761719 " fill-opacity="1" fill-rule="nonzero"/><path fill="#ffffff" d="M 268.898438 271.476562 C 268.898438 273.257812 267.460938 274.699219 265.6875 274.699219 C 263.910156 274.699219 262.472656 273.257812 262.472656 271.476562 C 262.472656 269.695312 263.910156 268.253906 265.6875 268.253906 C 267.460938 268.253906 268.898438 269.695312 268.898438 271.476562 " fill-opacity="1" fill-rule="nonzero"/><path fill="#000000" d="M 332.722656 373.742188 C 332.742188 373.742188 332.761719 373.742188 332.78125 373.742188 C 339.0625 373.722656 345.523438 369.929688 351.988281 362.472656 C 356.519531 357.246094 359.402344 352.074219 359.523438 351.855469 C 360.484375 350.121094 359.859375 347.933594 358.128906 346.96875 C 356.402344 346.003906 354.21875 346.628906 353.257812 348.363281 C 350.449219 353.417969 341.292969 366.53125 332.761719 366.554688 C 332.75 366.554688 332.738281 366.554688 332.726562 366.554688 C 330.019531 366.554688 327.925781 365.71875 326.332031 363.996094 C 322.507812 359.871094 322.230469 351.632812 322.445312 348.804688 C 322.59375 346.828125 321.117188 345.101562 319.144531 344.949219 C 317.171875 344.800781 315.453125 346.28125 315.300781 348.261719 C 315.257812 348.804688 314.367188 361.640625 321.082031 368.886719 C 324.066406 372.109375 327.984375 373.742188 332.722656 373.742188 " fill-opacity="1" fill-rule="nonzero"/><path fill="#000000" d="M 307.570312 347.855469 L 328.785156 347.855469 C 330.765625 347.855469 332.367188 346.246094 332.367188 344.261719 C 332.367188 342.277344 330.765625 340.667969 328.785156 340.667969 L 307.570312 340.667969 C 305.589844 340.667969 303.984375 342.277344 303.984375 344.261719 C 303.984375 346.246094 305.589844 347.855469 307.570312 347.855469 " fill-opacity="1" fill-rule="nonzero"/><path fill="#ffffff" d="M 336.390625 298.421875 L 336.726562 298.421875 L 336.726562 277.175781 L 336.390625 277.175781 C 330.574219 277.175781 325.859375 281.890625 325.859375 287.710938 L 325.859375 287.886719 C 325.859375 293.703125 330.574219 298.421875 336.390625 298.421875 " fill-opacity="1" fill-rule="nonzero"/><path fill="#000000" d="M 336.183594 277.71875 C 330.769531 277.828125 326.398438 282.269531 326.398438 287.710938 L 326.398438 287.886719 C 326.398438 293.332031 330.769531 297.769531 336.183594 297.878906 Z M 336.726562 298.964844 L 336.390625 298.964844 C 330.285156 298.964844 325.316406 293.992188 325.316406 287.886719 L 325.316406 287.710938 C 325.316406 281.605469 330.285156 276.636719 336.390625 276.636719 L 336.726562 276.636719 C 337.027344 276.636719 337.269531 276.878906 337.269531 277.175781 L 337.269531 298.421875 C 337.269531 298.71875 337.027344 298.964844 336.726562 298.964844 " fill-opacity="1" fill-rule="nonzero"/><path fill="#ffffff" d="M 432.714844 298.421875 L 432.378906 298.421875 L 432.378906 277.175781 L 432.714844 277.175781 C 438.53125 277.175781 443.246094 281.894531 443.246094 287.710938 L 443.246094 287.886719 C 443.246094 293.703125 438.53125 298.421875 432.714844 298.421875 " fill-opacity="1" fill-rule="nonzero"/><path fill="#000000" d="M 432.917969 277.71875 L 432.917969 297.878906 C 438.335938 297.769531 442.707031 293.332031 442.707031 287.886719 L 442.707031 287.710938 C 442.707031 282.269531 438.335938 277.828125 432.917969 277.71875 Z M 432.714844 298.964844 L 432.378906 298.964844 C 432.082031 298.964844 431.835938 298.71875 431.835938 298.421875 L 431.835938 277.175781 C 431.835938 276.875 432.082031 276.636719 432.378906 276.636719 L 432.714844 276.636719 C 438.820312 276.636719 443.785156 281.605469 443.785156 287.710938 L 443.785156 287.886719 C 443.785156 293.992188 438.820312 298.964844 432.714844 298.964844 " fill-opacity="1" fill-rule="nonzero"/><path fill="#ffffff" d="M 435.800781 286.921875 C 435.800781 264.089844 412.855469 240.476562 384.554688 240.476562 C 356.25 240.476562 333.304688 264.089844 333.304688 286.921875 C 333.304688 309.75 356.25 323.148438 384.554688 323.148438 C 412.855469 323.148438 435.800781 309.75 435.800781 286.921875 " fill-opacity="1" fill-rule="nonzero"/><path fill="#000000" d="M 384.554688 241.015625 C 355.53125 241.015625 333.84375 265.25 333.84375 286.921875 C 333.84375 297.613281 338.953125 306.683594 348.613281 313.148438 C 357.734375 319.25 370.5 322.609375 384.554688 322.609375 C 398.605469 322.609375 411.367188 319.25 420.492188 313.148438 C 430.15625 306.683594 435.261719 297.613281 435.261719 286.921875 C 435.261719 265.25 413.578125 241.015625 384.554688 241.015625 Z M 384.554688 323.691406 C 370.289062 323.691406 357.3125 320.265625 348.011719 314.046875 C 338.035156 307.375 332.761719 297.992188 332.761719 286.921875 C 332.761719 275.582031 338.296875 263.855469 347.941406 254.746094 C 358.054688 245.195312 371.054688 239.933594 384.554688 239.933594 C 398.046875 239.933594 411.050781 245.195312 421.164062 254.746094 C 430.808594 263.855469 436.34375 275.582031 436.34375 286.921875 C 436.34375 297.992188 431.070312 307.375 421.09375 314.046875 C 411.792969 320.265625 398.816406 323.691406 384.554688 323.691406 " fill-opacity="1" fill-rule="nonzero"/><path fill="#ffffff" d="M 372.015625 330.007812 L 397.691406 330.007812 C 408.945312 330.007812 418.066406 339.15625 418.066406 350.445312 C 418.066406 357.898438 417.34375 365.339844 415.902344 372.652344 L 412.210938 391.402344 C 409.628906 404.503906 398.171875 413.949219 384.851562 413.949219 C 371.539062 413.949219 360.078125 404.503906 357.5 391.402344 L 353.808594 372.652344 C 352.367188 365.339844 351.644531 357.898438 351.644531 350.445312 C 351.644531 339.15625 360.765625 330.007812 372.015625 330.007812 " fill-opacity="1" fill-rule="nonzero"/><path fill="#000000" d="M 372.019531 330.550781 C 361.082031 330.550781 352.183594 339.476562 352.183594 350.445312 C 352.183594 357.847656 352.90625 365.285156 354.339844 372.546875 L 358.03125 391.296875 C 360.550781 404.109375 371.835938 413.410156 384.855469 413.410156 C 397.875 413.410156 409.160156 404.109375 411.679688 391.296875 L 415.371094 372.546875 C 416.800781 365.285156 417.527344 357.847656 417.527344 350.445312 C 417.527344 339.476562 408.628906 330.550781 397.691406 330.550781 Z M 384.855469 414.488281 C 371.320312 414.488281 359.589844 404.824219 356.96875 391.507812 L 353.277344 372.757812 C 351.835938 365.425781 351.101562 357.917969 351.101562 350.445312 C 351.101562 338.878906 360.484375 329.46875 372.019531 329.46875 L 397.691406 329.46875 C 409.222656 329.46875 418.605469 338.878906 418.605469 350.445312 C 418.605469 357.917969 417.875 365.425781 416.433594 372.757812 L 412.738281 391.507812 C 410.117188 404.824219 398.390625 414.488281 384.855469 414.488281 " fill-opacity="1" fill-rule="nonzero"/><path fill="#000000" d="M 398.527344 330.546875 L 370.578125 330.546875 C 370.28125 330.546875 370.039062 330.308594 370.039062 330.007812 C 370.039062 329.710938 370.28125 329.46875 370.578125 329.46875 L 398.527344 329.46875 C 398.824219 329.46875 399.070312 329.710938 399.070312 330.007812 C 399.070312 330.308594 398.824219 330.546875 398.527344 330.546875 " fill-opacity="1" fill-rule="nonzero"/><path fill="#000000" d="M 350.097656 280.066406 L 399.449219 280.066406 C 404.578125 280.066406 408.730469 284.5625 408.730469 290.101562 L 408.730469 296.644531 C 408.730469 300.871094 406.484375 305.351562 402.605469 306.082031 C 388.925781 308.660156 360.617188 308.660156 346.941406 306.082031 C 343.0625 305.351562 340.8125 300.871094 340.8125 296.644531 L 340.8125 290.101562 C 340.8125 284.5625 344.96875 280.066406 350.097656 280.066406 " fill-opacity="1" fill-rule="nonzero"/><path fill="#5479f7" d="M 386.371094 293.242188 C 386.371094 295.097656 387.761719 296.601562 389.480469 296.601562 C 391.195312 296.601562 392.589844 295.097656 392.589844 293.242188 C 392.589844 291.382812 391.195312 289.878906 389.480469 289.878906 C 387.761719 289.878906 386.371094 291.382812 386.371094 293.242188 " fill-opacity="1" fill-rule="nonzero"/><path fill="#5479f7" d="M 353.28125 293.242188 C 353.28125 295.097656 354.671875 296.601562 356.390625 296.601562 C 358.105469 296.601562 359.5 295.097656 359.5 293.242188 C 359.5 291.382812 358.105469 289.882812 356.390625 289.882812 C 354.671875 289.882812 353.28125 291.382812 353.28125 293.242188 " fill-opacity="1" fill-rule="nonzero"/><path fill="#99b9ff" d="M 378.078125 367.828125 L 391.628906 367.828125 C 395.242188 367.828125 398.167969 364.898438 398.167969 361.292969 L 398.167969 330.484375 L 371.542969 330.484375 L 371.542969 361.292969 C 371.542969 364.898438 374.46875 367.828125 378.078125 367.828125 " fill-opacity="1" fill-rule="nonzero"/><path fill="#000000" d="M 417.332031 390.074219 C 424.351562 390.074219 433.847656 389.070312 439.9375 384.390625 C 443.445312 381.695312 445.496094 378.132812 446.023438 373.804688 C 448.421875 354.378906 425.046875 343.261719 424.054688 342.796875 C 422.257812 341.960938 420.128906 342.746094 419.296875 344.542969 C 418.460938 346.34375 419.238281 348.476562 421.03125 349.3125 C 421.226562 349.40625 440.667969 358.699219 438.917969 372.921875 C 438.621094 375.300781 437.53125 377.1875 435.574219 378.6875 C 428.882812 383.835938 414.289062 383.113281 409.230469 382.398438 C 407.269531 382.121094 405.457031 383.492188 405.183594 385.457031 C 404.90625 387.421875 406.273438 389.238281 408.234375 389.515625 C 408.59375 389.566406 412.332031 390.074219 417.332031 390.074219 " fill-opacity="1" fill-rule="nonzero"/><path fill="#000000" d="M 392.59375 393.894531 L 399.476562 393.894531 C 403.234375 393.894531 406.351562 391.066406 406.726562 387.316406 L 406.964844 384.914062 C 407.167969 382.863281 406.496094 380.8125 405.117188 379.285156 C 403.738281 377.753906 401.769531 376.878906 399.714844 376.878906 L 388.742188 376.878906 C 386.761719 376.878906 385.160156 378.488281 385.160156 380.472656 C 385.160156 382.457031 386.761719 384.066406 388.742188 384.066406 L 399.714844 384.066406 C 399.734375 384.066406 399.769531 384.066406 399.804688 384.105469 C 399.839844 384.144531 399.835938 384.179688 399.835938 384.199219 L 399.59375 386.601562 C 399.589844 386.664062 399.535156 386.707031 399.476562 386.707031 L 392.59375 386.707031 C 390.617188 386.707031 389.011719 388.316406 389.011719 390.304688 C 389.011719 392.285156 390.617188 393.894531 392.59375 393.894531 " fill-opacity="1" fill-rule="nonzero"/><path fill="#ffffff" d="M 355.339844 344.621094 C 355.121094 344.621094 354.917969 344.492188 354.835938 344.277344 C 354.324219 342.949219 353.738281 341.636719 353.105469 340.375 C 352.96875 340.109375 353.078125 339.78125 353.339844 339.648438 C 353.605469 339.515625 353.933594 339.621094 354.066406 339.886719 C 354.722656 341.179688 355.316406 342.527344 355.84375 343.886719 C 355.953125 344.164062 355.8125 344.476562 355.535156 344.585938 C 355.472656 344.609375 355.402344 344.621094 355.339844 344.621094 Z M 357.675781 352.933594 C 357.421875 352.933594 357.195312 352.753906 357.144531 352.492188 C 356.886719 351.085938 356.5625 349.683594 356.183594 348.328125 C 356.101562 348.039062 356.269531 347.742188 356.554688 347.660156 C 356.847656 347.582031 357.144531 347.75 357.222656 348.039062 C 357.613281 349.421875 357.945312 350.855469 358.210938 352.296875 C 358.265625 352.589844 358.070312 352.871094 357.773438 352.925781 C 357.742188 352.933594 357.710938 352.933594 357.675781 352.933594 Z M 358.511719 361.53125 C 358.214844 361.53125 357.972656 361.296875 357.96875 361 C 357.949219 359.566406 357.871094 358.125 357.734375 356.726562 C 357.707031 356.429688 357.925781 356.167969 358.222656 356.136719 C 358.519531 356.109375 358.785156 356.328125 358.8125 356.625 C 358.949219 358.054688 359.03125 359.519531 359.050781 360.984375 C 359.054688 361.285156 358.816406 361.53125 358.519531 361.53125 C 358.515625 361.53125 358.511719 361.53125 358.511719 361.53125 Z M 357.96875 370.160156 C 357.945312 370.160156 357.921875 370.15625 357.894531 370.15625 C 357.601562 370.113281 357.394531 369.839844 357.433594 369.542969 C 357.632812 368.132812 357.773438 366.695312 357.863281 365.28125 C 357.882812 364.984375 358.132812 364.757812 358.4375 364.777344 C 358.734375 364.796875 358.960938 365.050781 358.945312 365.347656 C 358.851562 366.789062 358.707031 368.253906 358.503906 369.691406 C 358.46875 369.964844 358.234375 370.160156 357.96875 370.160156 Z M 356.089844 378.597656 C 356.03125 378.597656 355.96875 378.585938 355.910156 378.566406 C 355.628906 378.464844 355.480469 378.15625 355.582031 377.875 C 355.585938 377.859375 356.125 376.324219 356.6875 373.761719 C 356.75 373.472656 357.035156 373.285156 357.328125 373.347656 C 357.621094 373.410156 357.804688 373.703125 357.742188 373.992188 C 357.167969 376.632812 356.621094 378.171875 356.601562 378.238281 C 356.519531 378.457031 356.3125 378.597656 356.089844 378.597656 " fill-opacity="1" fill-rule="nonzero"/><path fill="#000000" d="M 352.0625 169.765625 C 351.996094 169.765625 351.929688 169.753906 351.863281 169.726562 C 351.585938 169.613281 351.453125 169.300781 351.5625 169.023438 L 352.601562 166.425781 C 352.714844 166.148438 353.03125 166.015625 353.304688 166.125 C 353.582031 166.238281 353.71875 166.550781 353.605469 166.828125 L 352.566406 169.425781 C 352.480469 169.636719 352.277344 169.765625 352.0625 169.765625 " fill-opacity="1" fill-rule="nonzero"/><path fill="#000000" d="M 349.640625 175.816406 C 349.570312 175.816406 349.503906 175.800781 349.4375 175.777344 C 349.160156 175.664062 349.027344 175.351562 349.136719 175.070312 L 350.179688 172.476562 C 350.289062 172.199219 350.605469 172.066406 350.882812 172.175781 C 351.15625 172.285156 351.292969 172.601562 351.183594 172.878906 L 350.140625 175.476562 C 350.054688 175.683594 349.851562 175.816406 349.640625 175.816406 " fill-opacity="1" fill-rule="nonzero"/><path fill="#000000" d="M 349.652344 170.796875 C 349.585938 170.796875 349.515625 170.78125 349.449219 170.757812 L 346.859375 169.710938 C 346.585938 169.601562 346.449219 169.285156 346.558594 169.011719 C 346.671875 168.734375 346.988281 168.597656 347.265625 168.710938 L 349.851562 169.753906 C 350.128906 169.867188 350.265625 170.179688 350.152344 170.457031 C 350.070312 170.667969 349.863281 170.796875 349.652344 170.796875 " fill-opacity="1" fill-rule="nonzero"/><path fill="#000000" d="M 355.683594 173.230469 C 355.617188 173.230469 355.550781 173.214844 355.480469 173.1875 L 352.894531 172.144531 C 352.617188 172.03125 352.480469 171.71875 352.59375 171.441406 C 352.703125 171.164062 353.019531 171.03125 353.296875 171.140625 L 355.886719 172.1875 C 356.164062 172.296875 356.296875 172.613281 356.183594 172.890625 C 356.101562 173.097656 355.898438 173.230469 355.683594 173.230469 " fill-opacity="1" fill-rule="nonzero"/><path fill="#000000" d="M 336.121094 161.398438 C 334.921875 162.191406 334.585938 163.847656 335.375 165.082031 C 335.757812 165.683594 336.347656 166.097656 337.035156 166.242188 C 337.703125 166.382812 338.386719 166.253906 338.957031 165.875 C 340.15625 165.078125 340.492188 163.425781 339.703125 162.1875 C 339.320312 161.585938 338.730469 161.175781 338.042969 161.03125 C 337.375 160.886719 336.691406 161.019531 336.121094 161.398438 Z M 337.566406 167.378906 C 337.316406 167.378906 337.0625 167.355469 336.8125 167.300781 C 335.839844 167.09375 335.003906 166.515625 334.464844 165.664062 C 333.359375 163.933594 333.835938 161.617188 335.523438 160.496094 C 336.339844 159.957031 337.3125 159.769531 338.269531 159.972656 C 339.238281 160.179688 340.074219 160.757812 340.617188 161.609375 C 341.71875 163.335938 341.242188 165.65625 339.554688 166.777344 C 338.953125 167.171875 338.269531 167.378906 337.566406 167.378906 " fill-opacity="1" fill-rule="nonzero"/><path fill="#000000" d="M 360.269531 417.351562 C 360.074219 417.351562 359.882812 417.242188 359.789062 417.050781 C 359.652344 416.785156 359.761719 416.460938 360.027344 416.328125 L 362.523438 415.074219 C 362.789062 414.941406 363.117188 415.046875 363.25 415.3125 C 363.382812 415.582031 363.273438 415.90625 363.011719 416.039062 L 360.511719 417.292969 C 360.433594 417.332031 360.351562 417.351562 360.269531 417.351562 " fill-opacity="1" fill-rule="nonzero"/><path fill="#000000" d="M 354.457031 420.265625 C 354.257812 420.265625 354.070312 420.160156 353.972656 419.96875 C 353.839844 419.703125 353.949219 419.375 354.214844 419.242188 L 356.710938 417.992188 C 356.976562 417.859375 357.300781 417.964844 357.433594 418.230469 C 357.570312 418.5 357.460938 418.824219 357.195312 418.957031 L 354.699219 420.210938 C 354.621094 420.25 354.539062 420.265625 354.457031 420.265625 " fill-opacity="1" fill-rule="nonzero"/><path fill="#000000" d="M 357.78125 416.519531 C 357.582031 416.519531 357.394531 416.410156 357.296875 416.21875 L 356.050781 413.714844 C 355.914062 413.449219 356.023438 413.125 356.292969 412.992188 C 356.558594 412.859375 356.882812 412.964844 357.015625 413.234375 L 358.265625 415.734375 C 358.398438 416.003906 358.289062 416.328125 358.023438 416.460938 C 357.945312 416.5 357.863281 416.519531 357.78125 416.519531 " fill-opacity="1" fill-rule="nonzero"/><path fill="#000000" d="M 360.691406 422.351562 C 360.492188 422.351562 360.300781 422.242188 360.207031 422.050781 L 358.957031 419.546875 C 358.824219 419.28125 358.933594 418.957031 359.199219 418.824219 C 359.464844 418.691406 359.792969 418.796875 359.925781 419.0625 L 361.171875 421.566406 C 361.308594 421.835938 361.199219 422.160156 360.933594 422.292969 C 360.851562 422.332031 360.773438 422.351562 360.691406 422.351562 " fill-opacity="1" fill-rule="nonzero"/><path fill="#ffffff" d="M 362.476562 345.585938 C 362.273438 345.585938 362.078125 345.46875 361.984375 345.273438 C 361.40625 344.019531 360.761719 342.726562 360.070312 341.429688 C 359.933594 341.164062 360.03125 340.839844 360.296875 340.699219 C 360.558594 340.558594 360.886719 340.660156 361.027344 340.921875 C 361.726562 342.234375 362.378906 343.546875 362.96875 344.820312 C 363.09375 345.089844 362.972656 345.410156 362.703125 345.539062 C 362.628906 345.570312 362.554688 345.585938 362.476562 345.585938 Z M 365.566406 353.65625 C 365.332031 353.65625 365.117188 353.503906 365.046875 353.269531 C 364.652344 351.945312 364.1875 350.582031 363.664062 349.21875 C 363.554688 348.941406 363.691406 348.628906 363.972656 348.519531 C 364.246094 348.414062 364.5625 348.550781 364.671875 348.832031 C 365.207031 350.222656 365.679688 351.609375 366.082031 352.960938 C 366.167969 353.246094 366.007812 353.550781 365.71875 353.632812 C 365.667969 353.648438 365.617188 353.65625 365.566406 353.65625 Z M 367.234375 362.128906 C 366.960938 362.128906 366.722656 361.914062 366.695312 361.636719 C 366.570312 360.25 366.363281 358.832031 366.082031 357.414062 C 366.023438 357.125 366.210938 356.839844 366.503906 356.78125 C 366.796875 356.722656 367.082031 356.910156 367.140625 357.203125 C 367.429688 358.65625 367.644531 360.113281 367.773438 361.535156 C 367.804688 361.832031 367.582031 362.097656 367.285156 362.125 C 367.269531 362.125 367.25 362.128906 367.234375 362.128906 Z M 367.035156 370.75 C 367.007812 370.75 366.984375 370.75 366.957031 370.746094 C 366.660156 370.703125 366.457031 370.429688 366.496094 370.132812 C 366.695312 368.730469 366.8125 367.304688 366.847656 365.890625 C 366.851562 365.59375 367.113281 365.359375 367.398438 365.363281 C 367.699219 365.371094 367.933594 365.617188 367.925781 365.917969 C 367.894531 367.371094 367.773438 368.84375 367.566406 370.285156 C 367.53125 370.554688 367.296875 370.75 367.035156 370.75 Z M 364.84375 379.097656 C 364.78125 379.097656 364.714844 379.085938 364.652344 379.0625 C 364.371094 378.957031 364.234375 378.644531 364.339844 378.367188 C 364.855469 377.019531 365.296875 375.65625 365.652344 374.308594 C 365.726562 374.019531 366.019531 373.847656 366.3125 373.921875 C 366.597656 374 366.773438 374.296875 366.695312 374.582031 C 366.332031 375.96875 365.878906 377.371094 365.351562 378.75 C 365.265625 378.964844 365.0625 379.097656 364.84375 379.097656 Z M 361.019531 386.839844 C 360.925781 386.839844 360.828125 386.816406 360.738281 386.761719 C 360.484375 386.609375 360.402344 386.277344 360.558594 386.019531 C 361.308594 384.773438 362.003906 383.511719 362.621094 382.273438 C 362.753906 382.007812 363.078125 381.898438 363.34375 382.03125 C 363.613281 382.164062 363.722656 382.488281 363.589844 382.753906 C 362.960938 384.019531 362.253906 385.308594 361.480469 386.578125 C 361.378906 386.746094 361.203125 386.839844 361.019531 386.839844 Z M 289.980469 389.34375 C 289.757812 389.34375 289.546875 389.203125 289.46875 388.976562 C 289.375 388.691406 289.527344 388.386719 289.808594 388.289062 C 291.203125 387.820312 292.722656 387.652344 294.300781 387.800781 C 294.597656 387.832031 294.8125 388.09375 294.789062 388.390625 C 294.757812 388.6875 294.5 388.90625 294.199219 388.878906 C 292.773438 388.742188 291.40625 388.890625 290.15625 389.3125 C 290.097656 389.332031 290.039062 389.34375 289.980469 389.34375 Z M 302.175781 392.09375 C 302.066406 392.09375 301.957031 392.0625 301.859375 391.996094 C 300.671875 391.148438 299.441406 390.453125 298.207031 389.929688 C 297.929688 389.8125 297.800781 389.496094 297.917969 389.222656 C 298.03125 388.945312 298.351562 388.816406 298.625 388.933594 C 299.9375 389.488281 301.234375 390.21875 302.488281 391.117188 C 302.730469 391.289062 302.789062 391.625 302.613281 391.871094 C 302.507812 392.015625 302.339844 392.09375 302.175781 392.09375 Z M 356.089844 393.9375 C 355.972656 393.9375 355.855469 393.902344 355.757812 393.824219 C 355.523438 393.644531 355.480469 393.304688 355.660156 393.066406 C 356.488281 391.996094 357.34375 390.832031 358.210938 389.605469 C 358.382812 389.359375 358.71875 389.304688 358.960938 389.472656 C 359.203125 389.648438 359.265625 389.984375 359.09375 390.226562 C 358.21875 391.464844 357.351562 392.644531 356.515625 393.726562 C 356.410156 393.863281 356.25 393.9375 356.089844 393.9375 Z M 284.210938 395.316406 C 284.160156 395.316406 284.109375 395.308594 284.054688 395.292969 C 283.769531 395.210938 283.605469 394.910156 283.691406 394.621094 C 284.148438 393.09375 284.910156 391.769531 285.960938 390.691406 C 286.167969 390.476562 286.511719 390.472656 286.722656 390.679688 C 286.9375 390.886719 286.941406 391.230469 286.734375 391.445312 C 285.808594 392.398438 285.132812 393.570312 284.726562 394.929688 C 284.660156 395.164062 284.445312 395.316406 284.210938 395.316406 Z M 308.015625 398.394531 C 307.824219 398.394531 307.644531 398.292969 307.542969 398.121094 C 306.898438 396.984375 306.054688 395.855469 305.03125 394.769531 C 304.828125 394.550781 304.835938 394.207031 305.054688 394.003906 C 305.273438 393.800781 305.613281 393.8125 305.820312 394.027344 C 306.898438 395.179688 307.796875 396.375 308.484375 397.585938 C 308.628906 397.84375 308.539062 398.175781 308.28125 398.324219 C 308.195312 398.371094 308.101562 398.394531 308.015625 398.394531 Z M 350.417969 400.453125 C 350.277344 400.453125 350.140625 400.398438 350.035156 400.292969 C 349.824219 400.082031 349.824219 399.738281 350.035156 399.527344 C 351.003906 398.5625 351.984375 397.507812 352.949219 396.390625 C 353.144531 396.167969 353.488281 396.140625 353.710938 396.339844 C 353.9375 396.535156 353.960938 396.875 353.765625 397.097656 C 352.785156 398.234375 351.785156 399.308594 350.796875 400.292969 C 350.695312 400.398438 350.554688 400.453125 350.417969 400.453125 Z M 174.488281 403.605469 C 174.210938 403.605469 173.976562 403.394531 173.953125 403.109375 C 173.925781 402.8125 174.148438 402.550781 174.445312 402.527344 C 175.859375 402.410156 177.324219 402.332031 178.796875 402.300781 C 179.097656 402.292969 179.339844 402.53125 179.347656 402.828125 C 179.355469 403.128906 179.117188 403.375 178.820312 403.382812 C 177.371094 403.414062 175.929688 403.488281 174.535156 403.605469 C 174.519531 403.605469 174.503906 403.605469 174.488281 403.605469 Z M 187.449219 403.652344 C 187.433594 403.652344 187.417969 403.648438 187.40625 403.648438 C 185.960938 403.53125 184.519531 403.449219 183.113281 403.402344 C 182.816406 403.394531 182.582031 403.144531 182.589844 402.84375 C 182.601562 402.546875 182.847656 402.3125 183.148438 402.324219 C 184.570312 402.367188 186.03125 402.453125 187.492188 402.570312 C 187.789062 402.59375 188.011719 402.855469 187.988281 403.152344 C 187.964844 403.4375 187.726562 403.652344 187.449219 403.652344 Z M 284.777344 403.792969 C 284.5625 403.792969 284.359375 403.664062 284.273438 403.453125 C 283.714844 402.039062 283.371094 400.574219 283.257812 399.097656 C 283.234375 398.800781 283.457031 398.542969 283.753906 398.519531 C 284.058594 398.496094 284.3125 398.71875 284.335938 399.015625 C 284.441406 400.382812 284.761719 401.742188 285.28125 403.054688 C 285.386719 403.332031 285.253906 403.644531 284.976562 403.753906 C 284.910156 403.78125 284.84375 403.792969 284.777344 403.792969 Z M 196.027344 404.746094 C 195.996094 404.746094 195.964844 404.742188 195.933594 404.738281 C 194.515625 404.492188 193.082031 404.277344 191.679688 404.097656 C 191.382812 404.058594 191.175781 403.789062 191.210938 403.492188 C 191.25 403.199219 191.523438 402.988281 191.816406 403.027344 C 193.234375 403.207031 194.683594 403.425781 196.117188 403.671875 C 196.410156 403.722656 196.609375 404.003906 196.558594 404.296875 C 196.511719 404.558594 196.285156 404.746094 196.027344 404.746094 Z M 165.949219 404.914062 C 165.703125 404.914062 165.480469 404.746094 165.421875 404.496094 C 165.355469 404.207031 165.539062 403.914062 165.828125 403.847656 C 167.210938 403.527344 168.652344 403.253906 170.117188 403.03125 C 170.410156 402.988281 170.6875 403.191406 170.730469 403.484375 C 170.777344 403.78125 170.574219 404.058594 170.277344 404.101562 C 168.84375 404.320312 167.429688 404.589844 166.070312 404.902344 C 166.03125 404.910156 165.988281 404.914062 165.949219 404.914062 Z M 343.78125 405.972656 C 343.613281 405.972656 343.441406 405.886719 343.335938 405.734375 C 343.167969 405.488281 343.230469 405.152344 343.480469 404.984375 C 344.636719 404.199219 345.78125 403.335938 346.882812 402.414062 C 347.113281 402.21875 347.453125 402.25 347.648438 402.480469 C 347.835938 402.710938 347.804688 403.050781 347.578125 403.242188 C 346.445312 404.1875 345.273438 405.074219 344.085938 405.878906 C 343.992188 405.941406 343.890625 405.972656 343.78125 405.972656 Z M 204.480469 406.5625 C 204.433594 406.5625 204.390625 406.558594 204.34375 406.546875 C 202.960938 406.191406 201.550781 405.855469 200.15625 405.554688 C 199.863281 405.492188 199.679688 405.203125 199.742188 404.914062 C 199.804688 404.621094 200.09375 404.4375 200.382812 404.5 C 201.792969 404.800781 203.214844 405.140625 204.613281 405.5 C 204.902344 405.574219 205.078125 405.867188 205.003906 406.160156 C 204.9375 406.402344 204.71875 406.5625 204.480469 406.5625 Z M 310.332031 406.648438 C 310.042969 406.648438 309.804688 406.421875 309.792969 406.132812 C 309.730469 404.757812 309.503906 403.367188 309.117188 401.996094 C 309.035156 401.710938 309.203125 401.414062 309.488281 401.332031 C 309.773438 401.25 310.074219 401.414062 310.15625 401.703125 C 310.566406 403.152344 310.808594 404.625 310.871094 406.085938 C 310.886719 406.382812 310.652344 406.636719 310.355469 406.648438 C 310.347656 406.648438 310.339844 406.648438 310.332031 406.648438 Z M 212.753906 409.070312 C 212.695312 409.070312 212.636719 409.058594 212.578125 409.039062 C 211.246094 408.570312 209.867188 408.125 208.488281 407.707031 C 208.199219 407.621094 208.039062 407.316406 208.125 407.03125 C 208.210938 406.746094 208.511719 406.582031 208.800781 406.671875 C 210.195312 407.09375 211.585938 407.546875 212.933594 408.015625 C 213.214844 408.117188 213.363281 408.425781 213.265625 408.707031 C 213.1875 408.929688 212.976562 409.070312 212.753906 409.070312 Z M 336.195312 410.070312 C 335.984375 410.070312 335.78125 409.945312 335.695312 409.738281 C 335.582031 409.464844 335.710938 409.144531 335.984375 409.03125 C 337.3125 408.46875 338.609375 407.851562 339.835938 407.195312 C 340.101562 407.050781 340.425781 407.148438 340.566406 407.414062 C 340.710938 407.675781 340.613281 408.003906 340.347656 408.144531 C 339.09375 408.820312 337.765625 409.453125 336.402344 410.027344 C 336.335938 410.054688 336.261719 410.070312 336.195312 410.070312 Z M 290.152344 410.394531 C 290.046875 410.394531 289.9375 410.367188 289.84375 410.300781 C 288.664062 409.476562 287.613281 408.542969 286.71875 407.523438 C 286.660156 407.453125 286.601562 407.382812 286.539062 407.316406 C 286.351562 407.085938 286.378906 406.742188 286.609375 406.550781 C 286.835938 406.359375 287.175781 406.390625 287.371094 406.621094 C 287.425781 406.683594 287.476562 406.75 287.53125 406.8125 C 288.367188 407.765625 289.351562 408.640625 290.460938 409.414062 C 290.707031 409.582031 290.765625 409.921875 290.597656 410.164062 C 290.492188 410.316406 290.324219 410.394531 290.152344 410.394531 Z M 220.765625 412.324219 C 220.691406 412.324219 220.613281 412.308594 220.542969 412.273438 C 219.148438 411.636719 217.855469 411.078125 216.59375 410.5625 C 216.316406 410.449219 216.183594 410.132812 216.296875 409.859375 C 216.410156 409.582031 216.726562 409.449219 217.003906 409.5625 C 218.277344 410.082031 219.582031 410.648438 220.988281 411.289062 C 221.261719 411.414062 221.382812 411.734375 221.257812 412.007812 C 221.167969 412.207031 220.96875 412.324219 220.765625 412.324219 Z M 327.992188 412.765625 C 327.75 412.765625 327.53125 412.601562 327.46875 412.359375 C 327.394531 412.066406 327.570312 411.773438 327.859375 411.699219 C 329.289062 411.339844 330.675781 410.941406 331.972656 410.515625 C 332.261719 410.425781 332.566406 410.582031 332.65625 410.863281 C 332.75 411.148438 332.59375 411.453125 332.3125 411.546875 C 330.984375 411.976562 329.578125 412.382812 328.121094 412.75 C 328.078125 412.761719 328.035156 412.765625 327.992188 412.765625 Z M 298.035156 413.847656 C 297.992188 413.847656 297.945312 413.839844 297.898438 413.828125 C 296.410156 413.445312 295.007812 412.972656 293.726562 412.425781 C 293.453125 412.308594 293.324219 411.988281 293.441406 411.714844 C 293.558594 411.441406 293.878906 411.3125 294.152344 411.429688 C 295.382812 411.957031 296.734375 412.410156 298.167969 412.78125 C 298.457031 412.859375 298.632812 413.152344 298.558594 413.441406 C 298.496094 413.683594 298.273438 413.847656 298.035156 413.847656 Z M 319.515625 414.445312 C 319.25 414.445312 319.019531 414.253906 318.980469 413.984375 C 318.9375 413.6875 319.140625 413.414062 319.4375 413.371094 C 319.957031 413.296875 320.460938 413.214844 320.953125 413.132812 C 321.882812 412.976562 322.796875 412.808594 323.671875 412.636719 C 323.960938 412.578125 324.246094 412.769531 324.304688 413.0625 C 324.363281 413.355469 324.171875 413.640625 323.878906 413.699219 C 322.996094 413.871094 322.074219 414.039062 321.132812 414.199219 C 320.632812 414.28125 320.117188 414.363281 319.59375 414.441406 C 319.566406 414.445312 319.542969 414.445312 319.515625 414.445312 Z M 308.710938 415.0625 C 308.640625 415.0625 308.5625 415.050781 308.496094 415.019531 C 308.222656 414.898438 308.09375 414.578125 308.214844 414.304688 C 308.789062 412.992188 309.214844 411.644531 309.476562 410.304688 C 309.53125 410.011719 309.820312 409.820312 310.109375 409.878906 C 310.402344 409.933594 310.59375 410.21875 310.535156 410.511719 C 310.257812 411.929688 309.8125 413.351562 309.207031 414.738281 C 309.117188 414.941406 308.917969 415.0625 308.710938 415.0625 Z M 306.578125 415.089844 C 306.570312 415.089844 306.558594 415.089844 306.550781 415.089844 C 305.046875 415.011719 303.582031 414.875 302.199219 414.675781 C 301.902344 414.636719 301.695312 414.359375 301.738281 414.066406 C 301.78125 413.769531 302.054688 413.5625 302.347656 413.605469 C 303.703125 413.796875 305.136719 413.933594 306.605469 414.011719 C 306.902344 414.027344 307.132812 414.28125 307.117188 414.578125 C 307.101562 414.867188 306.863281 415.089844 306.578125 415.089844 Z M 310.902344 415.160156 C 310.609375 415.160156 310.367188 414.925781 310.363281 414.628906 C 310.355469 414.332031 310.59375 414.085938 310.890625 414.078125 C 312.292969 414.050781 313.734375 413.976562 315.171875 413.855469 C 315.46875 413.832031 315.734375 414.054688 315.757812 414.351562 C 315.78125 414.648438 315.5625 414.910156 315.265625 414.933594 C 313.800781 415.054688 312.335938 415.132812 310.914062 415.160156 C 310.90625 415.160156 310.902344 415.160156 310.902344 415.160156 Z M 228.542969 416.109375 C 228.460938 416.109375 228.378906 416.085938 228.300781 416.050781 C 226.882812 415.328125 225.621094 414.695312 224.4375 414.117188 C 224.171875 413.984375 224.058594 413.664062 224.191406 413.394531 C 224.320312 413.125 224.644531 413.015625 224.914062 413.148438 C 226.101562 413.726562 227.371094 414.359375 228.789062 415.085938 C 229.054688 415.222656 229.160156 415.546875 229.027344 415.8125 C 228.929688 416 228.742188 416.109375 228.542969 416.109375 Z M 236.226562 420.085938 C 236.140625 420.085938 236.054688 420.066406 235.976562 420.027344 L 232.140625 418.027344 C 231.875 417.890625 231.773438 417.566406 231.910156 417.300781 C 232.046875 417.035156 232.371094 416.929688 232.640625 417.070312 L 236.476562 419.066406 C 236.742188 419.207031 236.84375 419.53125 236.707031 419.796875 C 236.609375 419.980469 236.421875 420.085938 236.226562 420.085938 Z M 303.917969 422.214844 C 303.785156 422.214844 303.65625 422.167969 303.550781 422.070312 C 303.332031 421.867188 303.320312 421.523438 303.523438 421.304688 C 304.511719 420.246094 305.402344 419.128906 306.167969 417.996094 C 306.339844 417.75 306.671875 417.6875 306.921875 417.851562 C 307.167969 418.019531 307.230469 418.355469 307.066406 418.605469 C 306.265625 419.78125 305.339844 420.941406 304.316406 422.042969 C 304.207031 422.15625 304.0625 422.214844 303.917969 422.214844 Z M 243.933594 424.015625 C 243.851562 424.015625 243.773438 423.996094 243.695312 423.957031 C 242.496094 423.367188 241.230469 422.730469 239.824219 422.011719 C 239.558594 421.875 239.453125 421.550781 239.589844 421.285156 C 239.722656 421.019531 240.050781 420.914062 240.316406 421.050781 C 241.71875 421.765625 242.980469 422.398438 244.171875 422.988281 C 244.441406 423.121094 244.550781 423.445312 244.417969 423.710938 C 244.324219 423.902344 244.132812 424.015625 243.933594 424.015625 Z M 251.78125 427.65625 C 251.710938 427.65625 251.636719 427.640625 251.566406 427.613281 C 250.308594 427.070312 248.972656 426.472656 247.605469 425.835938 C 247.335938 425.710938 247.21875 425.386719 247.34375 425.117188 C 247.472656 424.847656 247.792969 424.730469 248.0625 424.855469 C 249.421875 425.488281 250.742188 426.082031 251.996094 426.617188 C 252.269531 426.738281 252.394531 427.054688 252.277344 427.328125 C 252.191406 427.53125 251.992188 427.65625 251.78125 427.65625 Z M 297.273438 427.714844 C 297.09375 427.714844 296.917969 427.628906 296.816406 427.46875 C 296.65625 427.214844 296.730469 426.878906 296.980469 426.71875 C 298.1875 425.945312 299.347656 425.101562 300.421875 424.210938 C 300.65625 424.023438 300.996094 424.054688 301.183594 424.285156 C 301.375 424.519531 301.339844 424.859375 301.113281 425.046875 C 300 425.960938 298.808594 426.832031 297.5625 427.628906 C 297.472656 427.6875 297.371094 427.714844 297.273438 427.714844 Z M 259.859375 430.738281 C 259.804688 430.738281 259.746094 430.730469 259.691406 430.710938 C 258.371094 430.277344 256.992188 429.785156 255.59375 429.25 C 255.316406 429.144531 255.175781 428.832031 255.28125 428.550781 C 255.390625 428.273438 255.703125 428.132812 255.980469 428.242188 C 257.359375 428.773438 258.722656 429.253906 260.027344 429.683594 C 260.3125 429.777344 260.464844 430.082031 260.375 430.367188 C 260.296875 430.59375 260.085938 430.738281 259.859375 430.738281 Z M 289.53125 431.535156 C 289.3125 431.535156 289.105469 431.398438 289.023438 431.179688 C 288.921875 430.898438 289.070312 430.589844 289.351562 430.488281 C 290.667969 430.015625 291.988281 429.453125 293.269531 428.816406 C 293.535156 428.683594 293.859375 428.792969 293.992188 429.0625 C 294.125 429.332031 294.015625 429.65625 293.746094 429.785156 C 292.425781 430.4375 291.070312 431.015625 289.714844 431.507812 C 289.65625 431.527344 289.59375 431.535156 289.53125 431.535156 Z M 268.222656 432.914062 C 268.191406 432.914062 268.15625 432.910156 268.125 432.90625 C 266.742188 432.648438 265.308594 432.328125 263.867188 431.949219 C 263.582031 431.871094 263.40625 431.578125 263.484375 431.289062 C 263.558594 431 263.855469 430.828125 264.144531 430.902344 C 265.558594 431.273438 266.964844 431.589844 268.320312 431.839844 C 268.613281 431.894531 268.808594 432.179688 268.753906 432.472656 C 268.707031 432.730469 268.476562 432.914062 268.222656 432.914062 Z M 281.128906 433.488281 C 280.859375 433.488281 280.625 433.285156 280.59375 433.011719 C 280.558594 432.714844 280.773438 432.445312 281.070312 432.414062 C 282.484375 432.253906 283.894531 432.011719 285.269531 431.691406 C 285.558594 431.625 285.847656 431.808594 285.914062 432.097656 C 285.984375 432.386719 285.800781 432.679688 285.511719 432.746094 C 284.101562 433.074219 282.648438 433.324219 281.191406 433.488281 C 281.167969 433.488281 281.148438 433.488281 281.128906 433.488281 Z M 276.738281 433.734375 C 275.339844 433.734375 273.898438 433.660156 272.449219 433.519531 C 272.152344 433.488281 271.933594 433.226562 271.964844 432.929688 C 271.992188 432.632812 272.257812 432.414062 272.554688 432.445312 C 273.96875 432.582031 275.375 432.652344 276.738281 432.652344 L 276.816406 432.652344 C 277.113281 432.652344 277.355469 432.890625 277.355469 433.191406 C 277.355469 433.488281 277.113281 433.730469 276.816406 433.734375 L 276.738281 433.734375 " fill-opacity="1" fill-rule="nonzero"/><path fill="#000000" d="M 197.835938 261.929688 C 197.828125 261.929688 197.820312 261.925781 197.8125 261.925781 L 195.023438 261.804688 C 194.722656 261.792969 194.492188 261.539062 194.507812 261.242188 C 194.519531 260.945312 194.777344 260.710938 195.070312 260.726562 L 197.859375 260.847656 C 198.15625 260.859375 198.386719 261.113281 198.375 261.410156 C 198.363281 261.703125 198.121094 261.929688 197.835938 261.929688 " fill-opacity="1" fill-rule="nonzero"/><path fill="#000000" d="M 191.339844 261.644531 C 191.332031 261.644531 191.324219 261.644531 191.316406 261.644531 L 188.527344 261.519531 C 188.230469 261.507812 187.996094 261.253906 188.011719 260.957031 C 188.023438 260.660156 188.28125 260.425781 188.574219 260.441406 L 191.363281 260.5625 C 191.660156 260.574219 191.890625 260.828125 191.878906 261.125 C 191.867188 261.417969 191.628906 261.644531 191.339844 261.644531 " fill-opacity="1" fill-rule="nonzero"/><path fill="#000000" d="M 193.273438 259.867188 C 193.265625 259.867188 193.257812 259.867188 193.25 259.863281 C 192.953125 259.851562 192.722656 259.601562 192.734375 259.300781 L 192.855469 256.503906 C 192.867188 256.207031 193.121094 255.976562 193.417969 255.988281 C 193.71875 256.003906 193.949219 256.253906 193.9375 256.554688 L 193.8125 259.351562 C 193.800781 259.640625 193.5625 259.867188 193.273438 259.867188 " fill-opacity="1" fill-rule="nonzero"/><path fill="#000000" d="M 192.992188 266.378906 C 192.984375 266.378906 192.972656 266.378906 192.964844 266.378906 C 192.667969 266.367188 192.4375 266.113281 192.449219 265.816406 L 192.570312 263.019531 C 192.585938 262.722656 192.839844 262.488281 193.136719 262.503906 C 193.433594 262.515625 193.664062 262.769531 193.652344 263.066406 L 193.53125 265.863281 C 193.519531 266.152344 193.277344 266.378906 192.992188 266.378906 " fill-opacity="1" fill-rule="nonzero"/><path fill="#ffffff" d="M 422.253906 230.054688 C 419.644531 230.054688 417.523438 232.183594 417.523438 234.800781 C 417.523438 237.421875 419.644531 239.550781 422.253906 239.550781 C 424.863281 239.550781 426.984375 237.421875 426.984375 234.800781 C 426.984375 232.183594 424.863281 230.054688 422.253906 230.054688 Z M 422.253906 240.628906 C 419.046875 240.628906 416.441406 238.015625 416.441406 234.800781 C 416.441406 231.589844 419.046875 228.976562 422.253906 228.976562 C 425.457031 228.976562 428.066406 231.589844 428.066406 234.800781 C 428.066406 238.015625 425.457031 240.628906 422.253906 240.628906 " fill-opacity="1" fill-rule="nonzero"/><path fill="#5479f7" d="M 364.277344 223.714844 C 357.058594 224.332031 350.710938 218.96875 350.09375 211.730469 C 349.480469 204.496094 354.832031 198.125 362.046875 197.507812 C 369.261719 196.894531 375.609375 202.257812 376.226562 209.492188 C 376.839844 216.730469 371.488281 223.097656 364.277344 223.714844 Z M 387.820312 202.914062 C 387.75 202.609375 387.480469 202.398438 387.171875 202.398438 L 382.695312 202.414062 C 382.433594 202.417969 382.199219 202.257812 382.09375 202.019531 C 381.734375 201.214844 381.324219 200.441406 380.875 199.703125 C 380.738281 199.476562 380.742188 199.199219 380.890625 198.984375 L 383.414062 195.277344 C 383.589844 195.019531 383.5625 194.679688 383.351562 194.449219 L 380.683594 191.570312 C 380.46875 191.34375 380.132812 191.292969 379.867188 191.449219 L 375.992188 193.710938 C 375.765625 193.84375 375.488281 193.828125 375.277344 193.671875 C 374.570312 193.164062 373.832031 192.703125 373.066406 192.285156 C 372.835938 192.15625 372.699219 191.917969 372.71875 191.65625 L 373.0625 187.171875 C 373.082031 186.863281 372.890625 186.578125 372.59375 186.484375 L 368.847656 185.328125 C 368.554688 185.238281 368.234375 185.367188 368.082031 185.636719 L 365.859375 189.53125 C 365.730469 189.757812 365.480469 189.882812 365.21875 189.859375 C 364.359375 189.773438 363.488281 189.742188 362.609375 189.765625 C 362.347656 189.773438 362.105469 189.632812 361.992188 189.394531 L 360.054688 185.34375 C 359.921875 185.0625 359.613281 184.914062 359.3125 184.984375 L 355.492188 185.863281 C 355.191406 185.933594 354.976562 186.203125 354.976562 186.511719 L 354.996094 191.007812 C 354.996094 191.269531 354.839844 191.503906 354.601562 191.613281 C 353.800781 191.972656 353.03125 192.382812 352.289062 192.835938 C 352.070312 192.972656 351.789062 192.96875 351.574219 192.820312 L 347.882812 190.285156 C 347.628906 190.113281 347.285156 190.136719 347.058594 190.347656 L 344.1875 193.03125 C 343.960938 193.242188 343.914062 193.582031 344.066406 193.847656 L 346.320312 197.734375 C 346.453125 197.960938 346.4375 198.242188 346.285156 198.453125 C 345.777344 199.164062 345.3125 199.90625 344.898438 200.671875 C 344.777344 200.902344 344.53125 201.039062 344.269531 201.019531 L 339.804688 200.675781 C 339.496094 200.652344 339.210938 200.847656 339.121094 201.144531 L 337.96875 204.90625 C 337.878906 205.203125 338.003906 205.523438 338.273438 205.675781 L 342.15625 207.90625 C 342.382812 208.035156 342.507812 208.285156 342.480469 208.546875 C 342.394531 209.410156 342.363281 210.285156 342.390625 211.167969 C 342.398438 211.429688 342.257812 211.671875 342.019531 211.785156 L 337.984375 213.730469 C 337.703125 213.863281 337.554688 214.175781 337.625 214.476562 L 338.5 218.3125 C 338.570312 218.613281 338.839844 218.828125 339.148438 218.824219 L 343.625 218.808594 C 343.886719 218.808594 344.121094 218.964844 344.226562 219.203125 C 344.589844 220.007812 344.996094 220.78125 345.445312 221.523438 C 345.585938 221.746094 345.582031 222.023438 345.433594 222.242188 L 342.90625 225.949219 C 342.734375 226.203125 342.757812 226.546875 342.96875 226.773438 L 345.636719 229.65625 C 345.851562 229.882812 346.1875 229.933594 346.457031 229.773438 L 350.328125 227.511719 C 350.554688 227.382812 350.832031 227.398438 351.046875 227.550781 C 351.75 228.058594 352.492188 228.523438 353.253906 228.941406 C 353.484375 229.066406 353.621094 229.308594 353.601562 229.570312 L 353.257812 234.054688 C 353.238281 234.363281 353.429688 234.648438 353.726562 234.738281 L 357.472656 235.894531 C 357.769531 235.984375 358.085938 235.859375 358.242188 235.589844 L 360.464844 231.695312 C 360.59375 231.46875 360.839844 231.339844 361.101562 231.367188 C 361.960938 231.453125 362.832031 231.484375 363.710938 231.457031 C 363.972656 231.449219 364.214844 231.59375 364.328125 231.828125 L 366.265625 235.882812 C 366.398438 236.160156 366.707031 236.3125 367.007812 236.242188 L 370.828125 235.359375 C 371.128906 235.292969 371.34375 235.023438 371.34375 234.714844 L 371.324219 230.21875 C 371.324219 229.957031 371.480469 229.71875 371.71875 229.613281 C 372.519531 229.25 373.292969 228.84375 374.03125 228.390625 C 374.25 228.253906 374.53125 228.257812 374.746094 228.402344 L 378.4375 230.9375 C 378.691406 231.113281 379.039062 231.085938 379.261719 230.875 L 382.132812 228.195312 C 382.359375 227.984375 382.410156 227.644531 382.253906 227.378906 L 380 223.492188 C 379.867188 223.261719 379.882812 222.984375 380.035156 222.773438 C 380.542969 222.0625 381.007812 221.320312 381.421875 220.550781 C 381.546875 220.324219 381.792969 220.183594 382.050781 220.203125 L 386.515625 220.546875 C 386.828125 220.570312 387.109375 220.378906 387.199219 220.082031 L 388.351562 216.320312 C 388.441406 216.023438 388.316406 215.703125 388.046875 215.546875 L 384.164062 213.320312 C 383.9375 213.1875 383.816406 212.9375 383.839844 212.679688 C 383.925781 211.8125 383.957031 210.9375 383.929688 210.058594 C 383.921875 209.792969 384.066406 209.550781 384.300781 209.441406 L 388.339844 207.496094 C 388.617188 207.359375 388.765625 207.050781 388.699219 206.746094 L 387.820312 202.914062 " fill-opacity="1" fill-rule="nonzero"/><path fill="#5479f7" d="M 406.941406 201.125 C 401.625 202.195312 396.449219 198.742188 395.382812 193.40625 C 394.3125 188.074219 397.757812 182.882812 403.074219 181.8125 C 408.390625 180.742188 413.566406 184.195312 414.636719 189.527344 C 415.703125 194.859375 412.257812 200.050781 406.941406 201.125 Z M 422.707031 183.648438 C 422.632812 183.429688 422.410156 183.292969 422.183594 183.320312 L 418.851562 183.710938 C 418.65625 183.734375 418.46875 183.636719 418.371094 183.46875 C 418.035156 182.902344 417.667969 182.359375 417.269531 181.847656 C 417.148438 181.695312 417.125 181.484375 417.21875 181.3125 L 418.785156 178.339844 C 418.890625 178.136719 418.84375 177.882812 418.667969 177.730469 L 416.441406 175.816406 C 416.261719 175.664062 416.003906 175.652344 415.820312 175.792969 L 413.132812 177.804688 C 412.976562 177.921875 412.765625 177.933594 412.59375 177.835938 C 412.023438 177.519531 411.4375 177.234375 410.832031 176.988281 C 410.652344 176.917969 410.527344 176.746094 410.523438 176.550781 L 410.398438 173.183594 C 410.390625 172.953125 410.222656 172.757812 409.992188 172.714844 L 407.109375 172.175781 C 406.882812 172.132812 406.652344 172.25 406.5625 172.46875 L 405.238281 175.554688 C 405.160156 175.734375 404.984375 175.847656 404.789062 175.851562 C 404.140625 175.859375 403.492188 175.910156 402.839844 176.003906 C 402.648438 176.03125 402.457031 175.945312 402.351562 175.78125 L 400.566406 172.929688 C 400.445312 172.734375 400.203125 172.648438 399.984375 172.726562 L 397.214844 173.703125 C 396.996094 173.78125 396.859375 174 396.886719 174.230469 L 397.277344 177.574219 C 397.300781 177.769531 397.207031 177.957031 397.039062 178.054688 C 396.472656 178.394531 395.929688 178.761719 395.421875 179.164062 C 395.269531 179.285156 395.058594 179.304688 394.886719 179.214844 L 391.925781 177.640625 C 391.722656 177.53125 391.46875 177.582031 391.316406 177.757812 L 389.410156 179.996094 C 389.257812 180.171875 389.25 180.429688 389.390625 180.613281 L 391.394531 183.316406 C 391.507812 183.472656 391.519531 183.679688 391.425781 183.851562 C 391.109375 184.425781 390.824219 185.015625 390.582031 185.621094 C 390.507812 185.800781 390.339844 185.925781 390.144531 185.933594 L 386.789062 186.054688 C 386.558594 186.066406 386.363281 186.234375 386.324219 186.460938 L 385.785156 189.359375 C 385.742188 189.585938 385.859375 189.8125 386.074219 189.90625 L 389.148438 191.238281 C 389.328125 191.3125 389.445312 191.488281 389.445312 191.6875 C 389.457031 192.335938 389.507812 192.988281 389.601562 193.644531 C 389.628906 193.835938 389.542969 194.027344 389.378906 194.132812 L 386.535156 195.921875 C 386.339844 196.046875 386.257812 196.289062 386.332031 196.507812 L 387.308594 199.289062 C 387.386719 199.507812 387.605469 199.644531 387.832031 199.617188 L 391.164062 199.222656 C 391.359375 199.199219 391.542969 199.296875 391.644531 199.464844 C 391.980469 200.035156 392.351562 200.574219 392.75 201.089844 C 392.867188 201.242188 392.890625 201.449219 392.800781 201.625 L 391.230469 204.59375 C 391.125 204.800781 391.171875 205.054688 391.347656 205.207031 L 393.578125 207.121094 C 393.753906 207.273438 394.007812 207.285156 394.195312 207.144531 L 396.886719 205.132812 C 397.042969 205.011719 397.25 205.003906 397.421875 205.097656 C 397.992188 205.417969 398.582031 205.703125 399.183594 205.945312 C 399.363281 206.019531 399.484375 206.1875 399.492188 206.386719 L 399.617188 209.753906 C 399.625 209.984375 399.792969 210.179688 400.023438 210.222656 L 402.910156 210.761719 C 403.136719 210.804688 403.359375 210.683594 403.453125 210.46875 L 404.777344 207.382812 C 404.855469 207.203125 405.03125 207.089844 405.226562 207.085938 C 405.875 207.078125 406.523438 207.027344 407.175781 206.933594 C 407.367188 206.902344 407.5625 206.988281 407.667969 207.15625 L 409.449219 210.003906 C 409.570312 210.203125 409.8125 210.289062 410.035156 210.210938 L 412.800781 209.230469 C 413.019531 209.15625 413.15625 208.933594 413.128906 208.707031 L 412.738281 205.363281 C 412.714844 205.167969 412.8125 204.980469 412.980469 204.878906 C 413.546875 204.542969 414.085938 204.171875 414.59375 203.773438 C 414.746094 203.652344 414.957031 203.628906 415.128906 203.722656 L 418.089844 205.296875 C 418.292969 205.402344 418.546875 205.355469 418.695312 205.179688 L 420.609375 202.941406 C 420.757812 202.765625 420.769531 202.507812 420.628906 202.320312 L 418.625 199.621094 C 418.507812 199.464844 418.492188 199.253906 418.589844 199.082031 C 418.910156 198.511719 419.191406 197.921875 419.433594 197.316406 C 419.507812 197.136719 419.675781 197.011719 419.871094 197.003906 L 423.226562 196.878906 C 423.457031 196.871094 423.652344 196.703125 423.691406 196.476562 L 424.234375 193.578125 C 424.277344 193.347656 424.15625 193.121094 423.941406 193.03125 L 420.863281 191.699219 C 420.683594 191.625 420.574219 191.445312 420.570312 191.25 C 420.5625 190.601562 420.507812 189.949219 420.414062 189.292969 C 420.386719 189.101562 420.472656 188.90625 420.636719 188.804688 L 423.480469 187.011719 C 423.675781 186.886719 423.761719 186.648438 423.683594 186.429688 L 422.707031 183.648438 " fill-opacity="1" fill-rule="nonzero"/><g clip-path="url(#7bab0da96e)"><path fill="#8c52ff" d="M 60.015625 243.792969 C 60.023438 245.855469 61.679688 247.507812 63.734375 247.511719 C 65.796875 247.507812 67.445312 245.851562 67.453125 243.792969 C 67.445312 241.949219 66.117188 240.429688 64.367188 240.132812 L 64.367188 138.726562 L 108.242188 94.851562 L 231.101562 94.242188 C 231.269531 95.1875 231.796875 96.027344 232.59375 96.609375 C 233.242188 97.074219 233.984375 97.3125 234.78125 97.3125 C 235.714844 97.300781 236.566406 96.96875 237.257812 96.347656 C 238.046875 95.625 238.484375 94.640625 238.484375 93.578125 C 238.472656 92.375 237.90625 91.289062 236.9375 90.578125 C 236.289062 90.113281 235.546875 89.875 234.75 89.875 C 233.816406 89.886719 232.964844 90.21875 232.273438 90.839844 C 231.640625 91.414062 231.234375 92.15625 231.097656 92.984375 L 107.71875 93.59375 L 63.101562 138.207031 L 63.101562 240.132812 C 61.347656 240.429688 60.023438 241.949219 60.015625 243.792969 M 117.464844 114.523438 L 110.441406 107.503906 L 96.394531 121.550781 L 110.441406 135.597656 L 124.492188 121.550781 Z M 110.886719 106.160156 L 126.269531 121.542969 L 110.4375 137.375 L 94.605469 121.542969 L 110.4375 105.710938 Z M 170.097656 112.765625 L 188.445312 112.765625 L 180.132812 121.078125 L 161.785156 121.078125 Z M 191.835938 112.765625 L 210.183594 112.765625 L 201.871094 121.078125 L 183.523438 121.078125 Z M 148.359375 112.765625 L 166.707031 112.765625 L 158.394531 121.078125 L 140.046875 121.078125 Z M 224.277344 129.046875 C 226.335938 129.042969 227.988281 127.386719 227.992188 125.328125 C 227.988281 123.265625 226.332031 121.617188 224.277344 121.609375 C 222.429688 121.617188 220.910156 122.945312 220.613281 124.695312 L 137.40625 124.695312 L 113.773438 148.332031 L 70.859375 148.332031 L 70.859375 322.476562 C 69.105469 322.78125 67.78125 324.292969 67.773438 326.140625 C 67.78125 328.203125 69.4375 329.851562 71.492188 329.859375 C 73.554688 329.851562 75.207031 328.195312 75.210938 326.140625 C 75.207031 324.292969 73.875 322.777344 72.125 322.476562 L 72.125 149.59375 L 114.300781 149.59375 L 137.933594 125.960938 L 220.613281 125.960938 C 220.910156 127.710938 222.429688 129.035156 224.277344 129.046875 Z M 224.277344 129.046875 " fill-opacity="1" fill-rule="nonzero"/></g><g clip-path="url(#5924648a30)"><path fill="#8c52ff" d="M 539.984375 337.648438 C 539.976562 335.589844 538.320312 333.9375 536.265625 333.929688 C 534.203125 333.9375 532.554688 335.59375 532.546875 337.648438 C 532.554688 339.496094 533.882812 341.011719 535.632812 341.3125 L 535.632812 442.714844 L 491.757812 486.59375 L 368.898438 487.203125 C 368.730469 486.253906 368.203125 485.417969 367.40625 484.835938 C 366.757812 484.371094 366.015625 484.132812 365.21875 484.132812 C 364.285156 484.144531 363.433594 484.476562 362.742188 485.097656 C 361.953125 485.816406 361.515625 486.804688 361.515625 487.867188 C 361.527344 489.070312 362.09375 490.15625 363.0625 490.863281 C 363.710938 491.332031 364.453125 491.570312 365.25 491.570312 C 366.183594 491.558594 367.035156 491.226562 367.726562 490.605469 C 368.359375 490.027344 368.765625 489.285156 368.902344 488.460938 L 492.28125 487.851562 L 536.898438 443.234375 L 536.898438 341.3125 C 538.652344 341.011719 539.976562 339.496094 539.984375 337.648438 M 482.535156 466.921875 L 489.558594 473.941406 L 503.605469 459.894531 L 489.558594 445.847656 L 475.507812 459.894531 Z M 489.113281 475.28125 L 473.730469 459.898438 L 489.5625 444.066406 L 505.394531 459.898438 L 489.5625 475.730469 Z M 429.902344 468.675781 L 411.554688 468.675781 L 419.867188 460.363281 L 438.214844 460.363281 Z M 408.164062 468.675781 L 389.816406 468.675781 L 398.128906 460.363281 L 416.476562 460.363281 Z M 451.640625 468.675781 L 433.292969 468.675781 L 441.605469 460.363281 L 459.953125 460.363281 Z M 375.722656 452.394531 C 373.664062 452.402344 372.011719 454.058594 372.007812 456.113281 C 372.011719 458.175781 373.667969 459.828125 375.722656 459.832031 C 377.570312 459.828125 379.089844 458.496094 379.386719 456.746094 L 462.59375 456.746094 L 486.226562 433.113281 L 529.140625 433.113281 L 529.140625 258.964844 C 530.894531 258.660156 532.21875 257.148438 532.226562 255.304688 C 532.21875 253.242188 530.5625 251.589844 528.507812 251.585938 C 526.445312 251.589844 524.792969 253.246094 524.789062 255.304688 C 524.792969 257.148438 526.125 258.667969 527.875 258.964844 L 527.875 431.847656 L 485.699219 431.847656 L 462.066406 455.484375 L 379.386719 455.484375 C 379.089844 453.730469 377.570312 452.40625 375.722656 452.394531 Z M 375.722656 452.394531 " fill-opacity="1" fill-rule="nonzero"/></g></svg>